<svg width="46" height="46" fill="none" stroke="#000000" stroke-linecap="round" stroke-linejoin="round" stroke-width="1" viewBox="0 0 24 24" xmlns="http://www.w3.org/2000/svg">
  <path d="M12 22a9.97 9.97 0 0 0 7.071-2.929A9.97 9.97 0 0 0 22 12a9.969 9.969 0 0 0-2.929-7.071A9.969 9.969 0 0 0 12 2a9.969 9.969 0 0 0-7.071 2.929A9.969 9.969 0 0 0 2 12a9.969 9.969 0 0 0 2.929 7.071A9.969 9.969 0 0 0 12 22Z"></path>
  <path fill="#000000" fill-rule="evenodd" stroke="none" d="M12 5.5A1.25 1.25 0 1 1 12 8a1.25 1.25 0 0 1 0-2.5Z" clip-rule="evenodd"></path>
  <path d="M12.25 17v-7h-1"></path>
  <path d="M10.5 17H14"></path>
</svg>