<svg width="62" height="62" fill="none" stroke="currentColor" stroke-linejoin="round" stroke-width="1" viewBox="0 0 24 24" xmlns="http://www.w3.org/2000/svg">
  <path d="M18.343 7.585a7.685 7.685 0 0 1 1.264 3.051H22v2.728h-2.393a7.686 7.686 0 0 1-1.264 3.05l1.692 1.693-1.928 1.928-1.692-1.692a7.686 7.686 0 0 1-3.051 1.264V22h-2.728v-2.393a7.685 7.685 0 0 1-3.05-1.264l-1.693 1.692-1.928-1.928 1.692-1.692a7.686 7.686 0 0 1-1.264-3.051H2v-2.728h2.393a7.682 7.682 0 0 1 1.264-3.05L3.965 5.893l1.928-1.928 1.692 1.692a7.685 7.685 0 0 1 3.051-1.264V2h2.728v2.393a7.682 7.682 0 0 1 3.05 1.264l1.693-1.692 1.928 1.928-1.692 1.692Z"></path>
  <path d="M12 14.5a2.5 2.5 0 1 0 0-5 2.5 2.5 0 0 0 0 5Z"></path>
</svg>