<svg width="46" height="46" fill="none" stroke="#000000" stroke-linecap="round" stroke-linejoin="round" stroke-width="1" viewBox="0 0 24 24" xmlns="http://www.w3.org/2000/svg">
  <path d="M18.499 10.856a8 8 0 1 0-13.895 5.552l-.599 3.605 3.558-1.528c1.567.521 3.046.651 4.437.39"></path>
  <path fill="#000000" stroke="none" d="M7.563 10.233A1.13 1.13 0 0 0 8.688 9.1a1.13 1.13 0 0 0-1.126-1.133A1.13 1.13 0 0 0 6.438 9.1a1.13 1.13 0 0 0 1.125 1.133Z"></path>
  <path fill="#000000" stroke="none" d="M12.063 10.233A1.13 1.13 0 0 0 13.187 9.1a1.13 1.13 0 0 0-1.124-1.133A1.13 1.13 0 0 0 10.937 9.1a1.13 1.13 0 0 0 1.126 1.133Z"></path>
  <path d="M19.38 19.965A5.25 5.25 0 1 1 21 17.987"></path>
  <path d="M21.001 17.986 21.5 21l-2.12-1.035"></path>
  <path fill="#000000" stroke="none" d="M17.844 15.4a.847.847 0 0 1-.844-.85c0-.47.378-.85.844-.85.466 0 .843.38.843.85s-.377.85-.843.85Z"></path>
  <path fill="#000000" stroke="none" d="M14.469 15.4a.847.847 0 0 1-.844-.85c0-.47.378-.85.844-.85.466 0 .844.38.844.85s-.378.85-.844.85Z"></path>
</svg>